<svg width="10" height="18" viewBox="0 0 10 18" fill="none" xmlns="http://www.w3.org/2000/svg">
<path fill-rule="evenodd" clip-rule="evenodd" d="M0.807518 1.05752C0.865575 0.999315 0.934545 0.953136 1.01048 0.921628C1.08641 0.89012 1.16781 0.873901 1.25002 0.873901C1.33223 0.873901 1.41363 0.89012 1.48956 0.921628C1.56549 0.953136 1.63446 0.999315 1.69252 1.05752L9.19252 8.55752C9.25072 8.61558 9.2969 8.68455 9.32841 8.76048C9.35992 8.83641 9.37613 8.91781 9.37613 9.00002C9.37613 9.08223 9.35992 9.16363 9.32841 9.23956C9.2969 9.31549 9.25072 9.38446 9.19252 9.44252L1.69252 16.9425C1.57516 17.0599 1.41599 17.1258 1.25002 17.1258C1.08405 17.1258 0.924877 17.0599 0.807518 16.9425C0.69016 16.8252 0.624229 16.666 0.624229 16.5C0.624229 16.334 0.69016 16.1749 0.807518 16.0575L7.86627 9.00002L0.807518 1.94252C0.749314 1.88446 0.703135 1.81549 0.671627 1.73956C0.640119 1.66363 0.623901 1.58223 0.623901 1.50002C0.623901 1.41781 0.640119 1.33641 0.671627 1.26048C0.703135 1.18455 0.749314 1.11558 0.807518 1.05752Z" fill="white"/>
</svg>
