<svg width="60" height="60" viewBox="0 0 60 60" fill="none" xmlns="http://www.w3.org/2000/svg">
<path d="M40.3711 18.75C38.6719 8.28516 34.6641 0.9375 30 0.9375C25.3359 0.9375 21.3281 8.28516 19.6289 18.75H40.3711ZM18.75 30C18.75 32.6016 18.8906 35.0977 19.1367 37.5H40.8516C41.0977 35.0977 41.2383 32.6016 41.2383 30C41.2383 27.3984 41.0977 24.9023 40.8516 22.5H19.1367C18.8906 24.9023 18.75 27.3984 18.75 30ZM56.8008 18.75C53.4492 10.793 46.6641 4.64062 38.2852 2.15625C41.1445 6.11719 43.1133 12.082 44.1445 18.75H56.8008ZM21.7031 2.15625C13.3359 4.64062 6.53906 10.793 3.19922 18.75H15.8555C16.875 12.082 18.8437 6.11719 21.7031 2.15625ZM58.0547 22.5H44.6133C44.8594 24.9609 45 27.4805 45 30C45 32.5195 44.8594 35.0391 44.6133 37.5H58.043C58.6875 35.0977 59.0508 32.6016 59.0508 30C59.0508 27.3984 58.6875 24.9023 58.0547 22.5ZM15 30C15 27.4805 15.1406 24.9609 15.3867 22.5H1.94531C1.3125 24.9023 0.9375 27.3984 0.9375 30C0.9375 32.6016 1.3125 35.0977 1.94531 37.5H15.375C15.1406 35.0391 15 32.5195 15 30ZM19.6289 41.25C21.3281 51.7148 25.3359 59.0625 30 59.0625C34.6641 59.0625 38.6719 51.7148 40.3711 41.25H19.6289ZM38.2969 57.8438C46.6641 55.3594 53.4609 49.207 56.8125 41.25H44.1562C43.125 47.918 41.1562 53.8828 38.2969 57.8438ZM3.19922 41.25C6.55078 49.207 13.3359 55.3594 21.7148 57.8438C18.8555 53.8828 16.8867 47.918 15.8555 41.25H3.19922Z" fill="white"/>
</svg>
