<svg width="205" height="56" viewBox="0 0 205 56" fill="none" xmlns="http://www.w3.org/2000/svg">
<path d="M28.1881 52.3904C25.1043 52.9378 21.9662 53.1019 18.7201 53.539L8.8188 24.2267V54.797C5.73499 55.125 2.92165 55.5625 0 56V0H8.22402L19.4774 31.7739V0H28.1881V52.3904ZM45.2309 20.5078C48.5856 20.5078 53.7254 20.3437 56.8092 20.3437V29.0935C52.9677 29.0935 48.4773 29.0935 45.2309 29.2576V42.2735C50.3169 41.9455 55.4026 41.5076 60.5423 41.3435V49.7649L36.5741 51.6793V0H60.5423V8.75001H45.2309V20.5078ZM92.7341 8.75021H83.7529V49.0001C80.8313 49.0001 77.9096 49.0001 75.0967 49.1092V8.75021H66.1155V0H92.7345L92.7341 8.75021ZM106.801 19.9064H118.65V28.6562H106.801V48.508H98.3061V0H122.491V8.75001H106.801V19.9064ZM136.558 40.8515C141.482 40.9606 146.459 41.3441 151.275 41.617V50.2578C143.538 49.7653 135.801 49.2737 127.902 49.1092V0H136.558V40.8515ZM158.579 50.8594C161.338 51.0237 164.259 51.1878 167.073 51.5154V0H158.579V50.8594ZM205 0L194.017 26.6329L205 56C201.753 55.5625 198.507 54.9609 195.261 54.4139L189.039 38.2268L182.71 53.1019C179.571 52.5545 176.541 52.3904 173.404 51.9529L184.549 26.3045L174.485 0H183.791L189.472 14.711L195.532 0H205V0Z" fill="#D81F26"/>
</svg>
